<?xml version="1.0" encoding="UTF-8"?>
<svg width="300" height="400" viewBox="0 0 300 400" fill="none" xmlns="http://www.w3.org/2000/svg">
  <rect width="300" height="400" rx="15" fill="#4299E1"/>
  <g transform="translate(75,100)">
    <rect width="150" height="150" rx="10" fill="#63B3ED"/>
    <circle cx="75" cy="75" r="50" fill="#90CDF4"/>
    <path d="M75 35L90.8778 67.5H59.1222L75 35Z" fill="#F6E05E" transform="rotate(0,75,75)"/>
    <path d="M75 35L90.8778 67.5H59.1222L75 35Z" fill="#F6E05E" transform="rotate(72,75,75)"/>
    <path d="M75 35L90.8778 67.5H59.1222L75 35Z" fill="#F6E05E" transform="rotate(144,75,75)"/>
    <path d="M75 35L90.8778 67.5H59.1222L75 35Z" fill="#F6E05E" transform="rotate(216,75,75)"/>
    <path d="M75 35L90.8778 67.5H59.1222L75 35Z" fill="#F6E05E" transform="rotate(288,75,75)"/>
  </g>
  <circle cx="30" cy="30" r="10" fill="#63B3ED"/>
  <circle cx="270" cy="30" r="10" fill="#63B3ED"/>
  <circle cx="30" cy="370" r="10" fill="#63B3ED"/>
  <circle cx="270" cy="370" r="10" fill="#63B3ED"/>
</svg>
